# xmcd
#
# Track frame offsets: 
#        150
#        17675
#        31492
#        56667
#        71435
#        85885
#        100412
#        115727
#        139705
#        158732
#        175890
#        193122
#        212132
#        236607
#        249927
#        264350
#
# Disc length: 3719 seconds
#
# Revision: 4
# Processed by: cddbd v1.5.2PL0 Copyright (c) Steve Scherf et al.
# Submitted via: ExactAudioCopy v1.0b3
#
DISCID=d70e8510
DTITLE=Eddie C. Campbell - Gonna Be Alright
DYEAR=1999
DGENRE=Blues
TTITLE0=Do What You Wanna Do
TTITLE1=Mind Trouble
TTITLE2=You Worry Me
TTITLE3=The Bug
TTITLE4=Head Clear
TTITLE5=Everything Gonna Be Allright
TTITLE6=Alimony
TTITLE7=Life Is Like A Game
TTITLE8=Shake For Me
TTITLE9=Five And A Half
TTITLE10=Vibrations In The Air
TTITLE11=Devil's Walk
TTITLE12=Loneliness And Me
TTITLE13=Eddie's Rock
TTITLE14=Head Clear
TTITLE15=Please Love Me
EXTD=DTCD-3014
EXTT0=
EXTT1=
EXTT2=
EXTT3=
EXTT4=
EXTT5=
EXTT6=
EXTT7=
EXTT8=
EXTT9=
EXTT10=
EXTT11=
EXTT12=
EXTT13=
EXTT14=
EXTT15=
PLAYORDER=
